<mxfile host="app.diagrams.net" agent="Mozilla/5.0 (Windows NT 10.0; Win64; x64) AppleWebKit/537.36 (KHTML, like Gecko) Chrome/127.0.0.0 Safari/537.36" version="24.7.6">
  <diagram name="第 1 页" id="pE4NqbpW3lgK-uuVJsdi">
    <mxGraphModel dx="875" dy="468" grid="1" gridSize="10" guides="1" tooltips="1" connect="1" arrows="1" fold="1" page="1" pageScale="1" pageWidth="827" pageHeight="1169" math="0" shadow="0">
      <root>
        <mxCell id="0" />
        <mxCell id="1" parent="0" />
        <mxCell id="gikHiUVTYnQVGUzztLvk-28" value="" style="rounded=0;whiteSpace=wrap;html=1;" parent="1" vertex="1">
          <mxGeometry x="30" y="40" width="740" height="370" as="geometry" />
        </mxCell>
        <mxCell id="gikHiUVTYnQVGUzztLvk-1" value="imu" style="rounded=0;whiteSpace=wrap;html=1;fillColor=#d5e8d4;strokeColor=#82b366;" parent="1" vertex="1">
          <mxGeometry x="60" y="100" width="90" height="30" as="geometry" />
        </mxCell>
        <mxCell id="gikHiUVTYnQVGUzztLvk-8" style="edgeStyle=orthogonalEdgeStyle;rounded=0;orthogonalLoop=1;jettySize=auto;html=1;entryX=0;entryY=0.5;entryDx=0;entryDy=0;" parent="1" source="gikHiUVTYnQVGUzztLvk-2" target="gikHiUVTYnQVGUzztLvk-5" edge="1">
          <mxGeometry relative="1" as="geometry" />
        </mxCell>
        <mxCell id="gikHiUVTYnQVGUzztLvk-2" value="lidar" style="rounded=0;whiteSpace=wrap;html=1;fillColor=#d5e8d4;strokeColor=#82b366;" parent="1" vertex="1">
          <mxGeometry x="60" y="170" width="90" height="30" as="geometry" />
        </mxCell>
        <mxCell id="gikHiUVTYnQVGUzztLvk-3" value="轮速" style="rounded=0;whiteSpace=wrap;html=1;fillColor=#d5e8d4;strokeColor=#82b366;" parent="1" vertex="1">
          <mxGeometry x="60" y="240" width="90" height="30" as="geometry" />
        </mxCell>
        <mxCell id="gikHiUVTYnQVGUzztLvk-18" style="edgeStyle=orthogonalEdgeStyle;rounded=0;orthogonalLoop=1;jettySize=auto;html=1;entryX=0;entryY=0.5;entryDx=0;entryDy=0;" parent="1" source="gikHiUVTYnQVGUzztLvk-4" target="gikHiUVTYnQVGUzztLvk-16" edge="1">
          <mxGeometry relative="1" as="geometry" />
        </mxCell>
        <mxCell id="gikHiUVTYnQVGUzztLvk-4" value="惯导" style="rounded=0;whiteSpace=wrap;html=1;fillColor=#d5e8d4;strokeColor=#82b366;" parent="1" vertex="1">
          <mxGeometry x="60" y="312.5" width="90" height="30" as="geometry" />
        </mxCell>
        <mxCell id="gikHiUVTYnQVGUzztLvk-13" style="edgeStyle=orthogonalEdgeStyle;rounded=0;orthogonalLoop=1;jettySize=auto;html=1;" parent="1" source="gikHiUVTYnQVGUzztLvk-5" target="gikHiUVTYnQVGUzztLvk-12" edge="1">
          <mxGeometry relative="1" as="geometry" />
        </mxCell>
        <mxCell id="gikHiUVTYnQVGUzztLvk-5" value="IESKF" style="ellipse;whiteSpace=wrap;html=1;fillColor=#f8cecc;strokeColor=#b85450;" parent="1" vertex="1">
          <mxGeometry x="230" y="145" width="120" height="80" as="geometry" />
        </mxCell>
        <mxCell id="gikHiUVTYnQVGUzztLvk-7" value="" style="endArrow=classic;html=1;rounded=0;exitX=1;exitY=0.5;exitDx=0;exitDy=0;" parent="1" source="gikHiUVTYnQVGUzztLvk-1" target="gikHiUVTYnQVGUzztLvk-5" edge="1">
          <mxGeometry width="50" height="50" relative="1" as="geometry">
            <mxPoint x="390" y="320" as="sourcePoint" />
            <mxPoint x="440" y="270" as="targetPoint" />
          </mxGeometry>
        </mxCell>
        <mxCell id="gikHiUVTYnQVGUzztLvk-10" value="" style="endArrow=classic;html=1;rounded=0;exitX=1;exitY=0.5;exitDx=0;exitDy=0;" parent="1" source="gikHiUVTYnQVGUzztLvk-3" target="gikHiUVTYnQVGUzztLvk-5" edge="1">
          <mxGeometry width="50" height="50" relative="1" as="geometry">
            <mxPoint x="390" y="320" as="sourcePoint" />
            <mxPoint x="440" y="270" as="targetPoint" />
          </mxGeometry>
        </mxCell>
        <mxCell id="gikHiUVTYnQVGUzztLvk-20" style="edgeStyle=orthogonalEdgeStyle;rounded=0;orthogonalLoop=1;jettySize=auto;html=1;entryX=0.5;entryY=0;entryDx=0;entryDy=0;" parent="1" source="gikHiUVTYnQVGUzztLvk-12" target="gikHiUVTYnQVGUzztLvk-16" edge="1">
          <mxGeometry relative="1" as="geometry" />
        </mxCell>
        <mxCell id="gikHiUVTYnQVGUzztLvk-12" value="激光里程计" style="rounded=0;whiteSpace=wrap;html=1;fillColor=#dae8fc;strokeColor=#6c8ebf;" parent="1" vertex="1">
          <mxGeometry x="414" y="167.5" width="110" height="35" as="geometry" />
        </mxCell>
        <mxCell id="gikHiUVTYnQVGUzztLvk-23" style="edgeStyle=orthogonalEdgeStyle;rounded=0;orthogonalLoop=1;jettySize=auto;html=1;entryX=0;entryY=0.5;entryDx=0;entryDy=0;" parent="1" source="gikHiUVTYnQVGUzztLvk-16" target="gikHiUVTYnQVGUzztLvk-22" edge="1">
          <mxGeometry relative="1" as="geometry" />
        </mxCell>
        <mxCell id="gikHiUVTYnQVGUzztLvk-16" value="点云关键帧" style="ellipse;whiteSpace=wrap;html=1;fillColor=#dae8fc;strokeColor=#6c8ebf;" parent="1" vertex="1">
          <mxGeometry x="414" y="307.5" width="110" height="40" as="geometry" />
        </mxCell>
        <mxCell id="gikHiUVTYnQVGUzztLvk-19" value="绝对位姿" style="text;html=1;align=center;verticalAlign=middle;whiteSpace=wrap;rounded=0;" parent="1" vertex="1">
          <mxGeometry x="240" y="302.5" width="60" height="30" as="geometry" />
        </mxCell>
        <mxCell id="gikHiUVTYnQVGUzztLvk-21" value="相对位姿" style="text;html=1;align=center;verticalAlign=middle;resizable=0;points=[];autosize=1;strokeColor=none;fillColor=none;" parent="1" vertex="1">
          <mxGeometry x="434" y="240" width="70" height="30" as="geometry" />
        </mxCell>
        <mxCell id="gikHiUVTYnQVGUzztLvk-26" style="edgeStyle=orthogonalEdgeStyle;rounded=0;orthogonalLoop=1;jettySize=auto;html=1;entryX=0.5;entryY=1;entryDx=0;entryDy=0;" parent="1" source="gikHiUVTYnQVGUzztLvk-22" target="gikHiUVTYnQVGUzztLvk-25" edge="1">
          <mxGeometry relative="1" as="geometry" />
        </mxCell>
        <mxCell id="gikHiUVTYnQVGUzztLvk-22" value="图优化" style="rhombus;whiteSpace=wrap;html=1;fillColor=#f8cecc;strokeColor=#b85450;" parent="1" vertex="1">
          <mxGeometry x="600" y="300" width="80" height="55" as="geometry" />
        </mxCell>
        <mxCell id="gikHiUVTYnQVGUzztLvk-25" value="全局地图" style="rounded=1;whiteSpace=wrap;html=1;fillColor=#dae8fc;strokeColor=#6c8ebf;" parent="1" vertex="1">
          <mxGeometry x="580" y="170" width="120" height="35" as="geometry" />
        </mxCell>
        <mxCell id="hLSX56b4xZyEho7WKffn-1" value="" style="rounded=0;whiteSpace=wrap;html=1;" vertex="1" parent="1">
          <mxGeometry x="30" y="510" width="650" height="290" as="geometry" />
        </mxCell>
        <mxCell id="hLSX56b4xZyEho7WKffn-2" value="imu" style="rounded=0;whiteSpace=wrap;html=1;fillColor=#d5e8d4;strokeColor=#82b366;" vertex="1" parent="1">
          <mxGeometry x="60" y="530" width="90" height="30" as="geometry" />
        </mxCell>
        <mxCell id="hLSX56b4xZyEho7WKffn-3" style="edgeStyle=orthogonalEdgeStyle;rounded=0;orthogonalLoop=1;jettySize=auto;html=1;entryX=0;entryY=0.5;entryDx=0;entryDy=0;" edge="1" parent="1" source="hLSX56b4xZyEho7WKffn-4" target="hLSX56b4xZyEho7WKffn-9">
          <mxGeometry relative="1" as="geometry" />
        </mxCell>
        <mxCell id="hLSX56b4xZyEho7WKffn-4" value="lidar" style="rounded=0;whiteSpace=wrap;html=1;fillColor=#d5e8d4;strokeColor=#82b366;" vertex="1" parent="1">
          <mxGeometry x="60" y="600" width="90" height="30" as="geometry" />
        </mxCell>
        <mxCell id="hLSX56b4xZyEho7WKffn-5" value="轮速" style="rounded=0;whiteSpace=wrap;html=1;fillColor=#d5e8d4;strokeColor=#82b366;" vertex="1" parent="1">
          <mxGeometry x="60" y="670" width="90" height="30" as="geometry" />
        </mxCell>
        <mxCell id="hLSX56b4xZyEho7WKffn-6" style="edgeStyle=orthogonalEdgeStyle;rounded=0;orthogonalLoop=1;jettySize=auto;html=1;entryX=0;entryY=0.5;entryDx=0;entryDy=0;" edge="1" parent="1" source="hLSX56b4xZyEho7WKffn-7" target="hLSX56b4xZyEho7WKffn-15">
          <mxGeometry relative="1" as="geometry" />
        </mxCell>
        <mxCell id="hLSX56b4xZyEho7WKffn-7" value="惯导" style="rounded=0;whiteSpace=wrap;html=1;fillColor=#d5e8d4;strokeColor=#82b366;" vertex="1" parent="1">
          <mxGeometry x="60" y="742.5" width="90" height="30" as="geometry" />
        </mxCell>
        <mxCell id="hLSX56b4xZyEho7WKffn-8" style="edgeStyle=orthogonalEdgeStyle;rounded=0;orthogonalLoop=1;jettySize=auto;html=1;" edge="1" parent="1" source="hLSX56b4xZyEho7WKffn-9" target="hLSX56b4xZyEho7WKffn-13">
          <mxGeometry relative="1" as="geometry" />
        </mxCell>
        <mxCell id="hLSX56b4xZyEho7WKffn-9" value="IESKF" style="ellipse;whiteSpace=wrap;html=1;fillColor=#f8cecc;strokeColor=#b85450;" vertex="1" parent="1">
          <mxGeometry x="230" y="575" width="120" height="80" as="geometry" />
        </mxCell>
        <mxCell id="hLSX56b4xZyEho7WKffn-10" value="" style="endArrow=classic;html=1;rounded=0;exitX=1;exitY=0.5;exitDx=0;exitDy=0;" edge="1" parent="1" source="hLSX56b4xZyEho7WKffn-2" target="hLSX56b4xZyEho7WKffn-9">
          <mxGeometry width="50" height="50" relative="1" as="geometry">
            <mxPoint x="390" y="750" as="sourcePoint" />
            <mxPoint x="440" y="700" as="targetPoint" />
          </mxGeometry>
        </mxCell>
        <mxCell id="hLSX56b4xZyEho7WKffn-11" value="" style="endArrow=classic;html=1;rounded=0;exitX=1;exitY=0.5;exitDx=0;exitDy=0;entryX=0;entryY=1;entryDx=0;entryDy=0;" edge="1" parent="1" source="hLSX56b4xZyEho7WKffn-5" target="hLSX56b4xZyEho7WKffn-9">
          <mxGeometry width="50" height="50" relative="1" as="geometry">
            <mxPoint x="390" y="750" as="sourcePoint" />
            <mxPoint x="440" y="700" as="targetPoint" />
          </mxGeometry>
        </mxCell>
        <mxCell id="hLSX56b4xZyEho7WKffn-25" value="速度约束" style="edgeLabel;html=1;align=center;verticalAlign=middle;resizable=0;points=[];" vertex="1" connectable="0" parent="hLSX56b4xZyEho7WKffn-11">
          <mxGeometry x="-0.1389" y="4" relative="1" as="geometry">
            <mxPoint as="offset" />
          </mxGeometry>
        </mxCell>
        <mxCell id="hLSX56b4xZyEho7WKffn-13" value="激光里程计" style="rounded=0;whiteSpace=wrap;html=1;fillColor=#dae8fc;strokeColor=#6c8ebf;" vertex="1" parent="1">
          <mxGeometry x="414" y="597.5" width="110" height="35" as="geometry" />
        </mxCell>
        <mxCell id="hLSX56b4xZyEho7WKffn-14" style="edgeStyle=orthogonalEdgeStyle;rounded=0;orthogonalLoop=1;jettySize=auto;html=1;" edge="1" parent="1" source="hLSX56b4xZyEho7WKffn-15" target="hLSX56b4xZyEho7WKffn-20">
          <mxGeometry relative="1" as="geometry">
            <mxPoint x="600" y="757.5" as="targetPoint" />
          </mxGeometry>
        </mxCell>
        <mxCell id="hLSX56b4xZyEho7WKffn-15" value="数据对齐" style="ellipse;whiteSpace=wrap;html=1;fillColor=#dae8fc;strokeColor=#6c8ebf;" vertex="1" parent="1">
          <mxGeometry x="414" y="737.5" width="110" height="40" as="geometry" />
        </mxCell>
        <mxCell id="hLSX56b4xZyEho7WKffn-16" value="绝对位姿" style="text;html=1;align=center;verticalAlign=middle;whiteSpace=wrap;rounded=0;" vertex="1" parent="1">
          <mxGeometry x="240" y="732.5" width="60" height="30" as="geometry" />
        </mxCell>
        <mxCell id="hLSX56b4xZyEho7WKffn-20" value="全局位姿输出" style="rounded=1;whiteSpace=wrap;html=1;fillColor=#dae8fc;strokeColor=#6c8ebf;" vertex="1" parent="1">
          <mxGeometry x="580" y="740" width="80" height="35" as="geometry" />
        </mxCell>
        <mxCell id="hLSX56b4xZyEho7WKffn-21" value="" style="endArrow=classic;html=1;rounded=0;exitX=1;exitY=0.5;exitDx=0;exitDy=0;entryX=0;entryY=1;entryDx=0;entryDy=0;" edge="1" parent="1" source="hLSX56b4xZyEho7WKffn-7" target="hLSX56b4xZyEho7WKffn-9">
          <mxGeometry width="50" height="50" relative="1" as="geometry">
            <mxPoint x="360" y="710" as="sourcePoint" />
            <mxPoint x="410" y="660" as="targetPoint" />
          </mxGeometry>
        </mxCell>
        <mxCell id="hLSX56b4xZyEho7WKffn-23" value="姿态约束" style="edgeLabel;html=1;align=center;verticalAlign=middle;resizable=0;points=[];" vertex="1" connectable="0" parent="hLSX56b4xZyEho7WKffn-21">
          <mxGeometry x="0.0171" y="-1" relative="1" as="geometry">
            <mxPoint as="offset" />
          </mxGeometry>
        </mxCell>
        <mxCell id="hLSX56b4xZyEho7WKffn-30" value="" style="endArrow=classic;html=1;rounded=0;exitX=0.5;exitY=1;exitDx=0;exitDy=0;entryX=0.5;entryY=0;entryDx=0;entryDy=0;" edge="1" parent="1" source="hLSX56b4xZyEho7WKffn-13" target="hLSX56b4xZyEho7WKffn-15">
          <mxGeometry width="50" height="50" relative="1" as="geometry">
            <mxPoint x="360" y="710" as="sourcePoint" />
            <mxPoint x="410" y="660" as="targetPoint" />
          </mxGeometry>
        </mxCell>
        <mxCell id="hLSX56b4xZyEho7WKffn-31" value="相对位姿" style="text;html=1;align=center;verticalAlign=middle;whiteSpace=wrap;rounded=0;" vertex="1" parent="1">
          <mxGeometry x="439" y="660" width="60" height="30" as="geometry" />
        </mxCell>
      </root>
    </mxGraphModel>
  </diagram>
</mxfile>
